# xmcd
#
# Track frame offsets:
#	150
#	23030
#	42771
#	65937
#	90512
#	111838
#	135382
#	156759
#	162339
#	185615
#
# Disc length: 2692 seconds
#
# Revision: 1
# Processed by: cddbd v1.5.1PL0 Copyright (c) Steve Scherf et al.
# Submitted via: EasyCDDAExtractor 6.5.0.3
#
DISCID=7f0a820a
DTITLE=Anita Baker - My Everything
DYEAR=2004
DGENRE=Soul
TTITLE0=You're My Everything
TTITLE1=How Could You
TTITLE2=In My Heart
TTITLE3=Serious
TTITLE4=How Does It Feel
TTITLE5=Like You Used To
TTITLE6=Close Your Eyes
TTITLE7=You're My Everything Revisited
TTITLE8=I Can't Sleep
TTITLE9=Men In My Life
EXTD=
EXTT0=
EXTT1=
EXTT2=
EXTT3=
EXTT4=
EXTT5=
EXTT6=
EXTT7=
EXTT8=
EXTT9=
PLAYORDER=
